<svg xmlns="http://www.w3.org/2000/svg" width="1280" height="800" viewBox="0 0 1280 800">
  <g>
    <rect width="1280" height="800" x="0" y="0" fill="none"/>
    <g>
      <path fill="rgb(227,44,60)" fill-opacity=".7" fill-rule="evenodd" d="M880 0h400v550s-52.17170816-118.8180158-144.36090226-103.48071496c-79.03336561 13.1485964-142.08748868 63.87029567-172.93233082 0C880 275.2587018 1016.57579194 265.10253306 1010.32581454 187.30009407 1002.11663714 85.10868094 880 0 880 0z"/>
      <path fill="rgb(227,44,60)" fill-opacity=".7" fill-rule="evenodd" d="M930 0h350v500s-45.65024464-108.016378-126.31578947-94.07337723c-69.15419492 11.95326945-124.3265526 58.06390515-151.31578948 0C930 250.23518344 1049.50381795 241.00230278 1044.03508772 170.27281279 1036.8520575 77.37152813 930 0 930 0z"/>
      <path fill="rgb(227,44,60)" fill-opacity=".7" fill-rule="evenodd" d="M980 0h300v450s-39.12878112-97.2147402-108.2706767-84.66603951c-59.2750242 10.7579425-106.5656165 52.25751464-129.69924811 0C980 225.21166509 1082.43184396 216.9020725 1077.7443609 153.2455315 1071.58747786 69.63437531 980 0 980 0z"/>
    </g>
    <g>
      <path fill="rgb(227,44,60)" fill-opacity=".7" fill-rule="evenodd" d="M0 0h450s-66.18283356 49.51004886-82.48191906 113.5c-11.25639261 44.19241885 25.46137111 96.13455309 25.46137111 140 0 55.37942346-97.60273972 62.3904021-97.60273972 146.5C295.37671233 497.47932079 450 555.00118279 450 625.17944779 450 732.96782194 0 800 0 800V0z"/>
      <path fill="rgb(227,44,60)" fill-opacity=".7" fill-rule="evenodd" d="M0 0h400s-58.82918539 49.51004886-73.31726139 113.5c-10.00568232 44.19241885 22.63232988 96.13455309 22.63232988 140 0 55.37942346-86.75799086 62.3904021-86.75799086 146.5C262.55707763 497.47932079 400 555.00118279 400 625.17944779 400 732.96782194 0 800 0 800V0z"/>
      <path fill="rgb(227,44,60)" fill-opacity=".7" fill-rule="evenodd" d="M0 0h350s-51.47553721 49.51004886-64.15260371 113.5c-8.75497203 44.19241885 19.80328864 96.13455309 19.80328864 140 0 55.37942346-75.913242 62.3904021-75.913242 146.5C229.73744292 497.47932079 350 555.00118279 350 625.17944779 350 732.96782194 0 800 0 800V0z"/>
    </g>
    <g>
      <ellipse cx="1133" cy="625" fill="rgb(227,44,60)" fill-opacity=".7" rx="125" ry="125"/>
      <ellipse cx="1133" cy="625" fill="rgb(227,44,60)" fill-opacity=".7" rx="100" ry="100"/>
      <ellipse cx="1133" cy="625" fill="rgb(227,44,60)" fill-opacity=".7" rx="75" ry="75"/>
    </g>
  </g>
</svg>
